<svg width="33" height="33" viewBox="0 0 33 33" fill="none" xmlns="http://www.w3.org/2000/svg">
<rect width="33" height="33" rx="8" fill="#3D61FF"/>
<path d="M10.003 9.125C9.98515 8.72542 10.0474 8.32632 10.186 7.95115C10.3247 7.57598 10.537 7.23233 10.8104 6.9404C11.0838 6.64847 11.4128 6.41417 11.7781 6.25126C12.1434 6.08836 12.5376 6.00014 12.9375 5.99181C13.3374 5.98347 13.7349 6.05519 14.1067 6.20273C14.4784 6.35027 14.8169 6.57066 15.1023 6.85094C15.3876 7.13122 15.614 7.46573 15.7682 7.8348C15.9224 8.20386 16.0012 8.60003 16 9V22M10.003 9.125C9.4152 9.27613 8.8695 9.55905 8.40723 9.95231C7.94496 10.3456 7.57824 10.8389 7.33484 11.3948C7.09145 11.9508 6.97776 12.5549 7.00239 13.1613C7.02702 13.7677 7.18932 14.3606 7.477 14.895M10.003 9.125C10.0228 9.60873 10.1593 10.0805 10.401 10.5M7.477 14.895C6.97118 15.3059 6.57342 15.8342 6.31834 16.4339C6.06325 17.0336 5.95856 17.6866 6.01336 18.336C6.06817 18.9854 6.28081 19.6115 6.6328 20.16C6.98479 20.7085 7.46546 21.1627 8.033 21.483M7.477 14.895C7.65994 14.746 7.8557 14.6145 8.062 14.5M8.033 21.483C7.96291 22.0252 8.00474 22.5761 8.15589 23.1015C8.30703 23.627 8.56429 24.1158 8.91178 24.538C9.25927 24.9601 9.68961 25.3065 10.1762 25.5558C10.6628 25.805 11.1954 25.9519 11.741 25.9873C12.2866 26.0227 12.8336 25.9459 13.3484 25.7616C13.8631 25.5773 14.3346 25.2894 14.7338 24.9158C15.1329 24.5421 15.4512 24.0906 15.669 23.5891C15.8867 23.0876 15.9994 22.5467 16 22M8.033 21.483C8.63327 21.8216 9.31083 22.0003 10 22M16 22H22C22.5304 22 23.0391 22.2107 23.4142 22.5858C23.7893 22.9609 24 23.4696 24 24V25M13 17C13.8396 16.7047 14.5727 16.167 15.1067 15.455C15.6407 14.743 15.9515 13.8887 16 13M16 17H20M16 12H24M20 12V9C20 8.46956 20.2107 7.96086 20.5858 7.58578C20.9609 7.21071 21.4696 7 22 7M20.5 17C20.5 17.2761 20.2761 17.5 20 17.5C19.7239 17.5 19.5 17.2761 19.5 17C19.5 16.7239 19.7239 16.5 20 16.5C20.2761 16.5 20.5 16.7239 20.5 17ZM22.5 7C22.5 7.27614 22.2761 7.5 22 7.5C21.7239 7.5 21.5 7.27614 21.5 7C21.5 6.72385 21.7239 6.5 22 6.5C22.2761 6.5 22.5 6.72385 22.5 7ZM24.5 25C24.5 25.2761 24.2761 25.5 24 25.5C23.7239 25.5 23.5 25.2761 23.5 25C23.5 24.7239 23.7239 24.5 24 24.5C24.2761 24.5 24.5 24.7239 24.5 25ZM24.5 12C24.5 12.2761 24.2761 12.5 24 12.5C23.7239 12.5 23.5 12.2761 23.5 12C23.5 11.7239 23.7239 11.5 24 11.5C24.2761 11.5 24.5 11.7239 24.5 12Z" stroke="white" stroke-width="2" stroke-linecap="round" stroke-linejoin="round"/>
</svg>
